<?xml version="1.0" standalone="no"?>
<!DOCTYPE svg PUBLIC "-//W3C//DTD SVG 20010904//EN"
 "http://www.w3.org/TR/2001/REC-SVG-20010904/DTD/svg10.dtd">
<svg version="1.0" xmlns="http://www.w3.org/2000/svg"
 width="450.000000pt" height="450.000000pt" viewBox="0 0 450.000000 450.000000"
 preserveAspectRatio="xMidYMid meet">

<g transform="translate(0.000000,450.000000) scale(0.100000,-0.100000)"
fill="#000000" stroke="none">
<path d="M2251 4390 c-4 -60 -30 -220 -44 -270 -8 -30 -18 -68 -21 -85 -2 -16
-10 -47 -16 -69 -6 -21 -13 -46 -15 -55 -4 -18 -61 -165 -77 -198 -6 -11 -7
-27 -3 -35 5 -7 5 -10 0 -6 -8 7 -81 -129 -90 -166 -3 -11 -8 -22 -13 -25 -16
-11 -33 -51 -26 -63 4 -7 3 -8 -4 -4 -11 6 -38 -31 -34 -46 1 -5 -2 -8 -6 -8
-4 0 -16 -15 -27 -32 -10 -18 -36 -56 -58 -85 -23 -31 -36 -57 -31 -64 4 -7 3
-9 -4 -6 -14 9 -148 -151 -144 -172 2 -12 0 -13 -6 -3 -6 9 -14 6 -29 -12 -12
-13 -18 -28 -15 -32 4 -4 2 -5 -4 -1 -5 3 -23 -8 -39 -25 -41 -44 -172 -157
-229 -198 -26 -19 -62 -47 -81 -62 -18 -16 -37 -28 -43 -28 -6 0 -12 -4 -14
-8 -3 -8 -46 -33 -173 -102 -230 -124 -490 -212 -759 -256 -59 -10 -103 -20
-99 -24 4 -3 57 -14 116 -24 203 -33 413 -97 610 -187 51 -23 97 -46 104 -51
7 -5 18 -6 24 -2 7 4 9 3 5 -4 -3 -6 4 -14 16 -18 13 -4 38 -17 57 -30 19 -13
39 -20 44 -17 6 3 7 2 4 -4 -4 -6 23 -25 58 -43 36 -18 65 -35 65 -37 0 -2 -4
-1 -10 2 -5 3 -10 4 -10 1 0 -3 10 -10 21 -17 17 -9 20 -8 14 3 -4 7 3 1 16
-14 13 -15 58 -54 99 -86 41 -33 90 -74 109 -90 19 -17 39 -29 43 -26 5 3 7 0
6 -8 -2 -7 3 -12 10 -10 6 1 11 -1 10 -6 -5 -14 49 -65 56 -53 10 16 23 14 46
-9 15 -15 18 -27 13 -51 -4 -23 -3 -30 5 -25 7 4 12 1 12 -7 0 -7 13 -26 28
-43 16 -16 32 -38 36 -49 6 -14 10 -16 13 -7 3 7 -2 21 -12 32 -9 10 -13 20
-8 22 4 3 2 3 -4 2 -7 -2 -19 7 -27 18 -19 27 -13 36 9 14 9 -9 20 -16 25 -16
15 0 8 69 -7 74 -17 7 -17 47 2 72 13 17 14 17 15 2 0 -10 3 -18 6 -18 11 0
34 29 34 44 0 16 4 26 28 73 7 13 12 32 12 43 0 20 4 29 28 77 7 13 12 34 12
49 0 27 20 54 42 54 16 0 41 37 33 50 -4 6 -13 10 -21 10 -20 0 -17 23 6 48
11 12 20 28 20 37 0 8 5 15 10 15 6 0 10 22 10 49 0 28 5 53 10 56 6 3 10 17
10 31 0 13 5 33 10 44 6 11 15 29 20 40 6 11 10 31 10 45 0 14 9 35 20 47 13
15 20 36 20 63 0 29 6 45 20 55 11 8 20 22 20 32 0 10 5 18 10 18 6 0 10 22
10 49 0 28 5 53 10 56 6 3 10 19 10 35 0 16 5 32 10 35 6 3 10 28 10 56 0 27
5 49 10 49 6 0 10 8 10 18 0 10 9 24 20 32 14 10 20 26 20 50 0 24 6 40 20 50
11 8 20 22 20 32 0 10 5 18 10 18 6 0 10 22 10 49 0 28 5 53 10 56 6 3 10 17
10 31 0 13 5 33 10 44 6 11 15 29 20 40 6 11 10 27 10 35 0 9 9 25 20 37 11
12 20 36 21 52 2 59 -1 149 -6 156 -3 4 2 10 10 14 12 4 15 -3 15 -29 0 -18 5
-37 10 -40 6 -3 10 2 10 12 0 15 2 16 11 3 7 -11 8 -4 4 26 -4 28 -2 50 7 64
11 18 11 22 -4 31 -10 6 -18 19 -18 29 0 23 -4 24 -31 10 -13 -7 -19 -7 -19 0
0 5 7 10 15 10 12 0 13 5 5 26 -8 19 -7 31 2 42 10 12 10 14 1 8 -7 -4 -13 -2
-13 3 0 6 6 11 13 11 9 0 9 2 -1 8 -7 5 -10 16 -7 24 4 9 1 19 -4 23 -6 3 -8
12 -4 18 4 8 1 7 -9 -1 -12 -9 -18 -10 -23 -2 -4 6 -4 14 -1 17 3 4 6 0 6 -8
0 -11 2 -11 10 1 13 20 12 33 -2 24 -7 -5 -8 -3 -3 6 11 18 -15 30 -39 18 -19
-10 -20 -10 -7 6 8 9 20 15 28 12 19 -8 16 14 -4 31 -10 8 -12 11 -4 7 11 -5
13 -3 8 10 -4 10 -10 29 -13 42 -3 13 -9 24 -13 24 -3 0 -6 14 -7 30 -1 17
-10 38 -20 46 -10 9 -13 12 -5 8 11 -5 13 -2 8 17 -4 13 -7 34 -7 47 0 14 -4
21 -11 16 -8 -4 -9 1 -4 16 4 12 3 20 -1 17 -5 -3 -7 15 -5 40 2 28 -1 43 -6
40 -6 -4 -8 3 -6 16 2 12 0 49 -5 82 -5 33 -10 49 -11 35z m29 -264 c0 -3 -4
-8 -10 -11 -5 -3 -10 -1 -10 4 0 6 5 11 10 11 6 0 10 -2 10 -4z m-46 -82 c3
-8 2 -12 -4 -9 -6 3 -10 10 -10 16 0 14 7 11 14 -7z m51 -4 c3 -5 1 -10 -4
-10 -6 0 -11 5 -11 10 0 6 2 10 4 10 3 0 8 -4 11 -10z m-78 -62 c-3 -8 -6 -5
-6 6 -1 11 2 17 5 13 3 -3 4 -12 1 -19z m143 -162 c0 -2 -7 -7 -16 -10 -8 -3
-12 -2 -9 4 6 10 25 14 25 6z m-212 -51 c-3 -3 -9 2 -12 12 -6 14 -5 15 5 6 7
-7 10 -15 7 -18z m-70 -150 c-3 -3 -9 2 -12 12 -6 14 -5 15 5 6 7 -7 10 -15 7
-18z m352 -41 c0 -8 -4 -14 -10 -14 -5 0 -10 9 -10 21 0 11 5 17 10 14 6 -3
10 -13 10 -21z m-430 -148 c0 -3 -4 -8 -10 -11 -5 -3 -10 -1 -10 4 0 6 5 11
10 11 6 0 10 -2 10 -4z m310 -176 c0 -23 -4 -30 -20 -30 -11 0 -20 5 -20 10 0
6 5 10 10 10 6 0 10 9 10 20 0 11 5 20 10 20 6 0 10 -13 10 -30z m-40 -150 c0
-22 -4 -40 -10 -40 -5 0 -10 18 -10 40 0 22 5 40 10 40 6 0 10 -18 10 -40z
m-120 -350 c0 -5 -4 -10 -10 -10 -5 0 -10 5 -10 10 0 6 5 10 10 10 6 0 10 -4
10 -10z m-40 -130 c0 -22 -4 -40 -10 -40 -11 0 -14 63 -3 73 11 12 13 8 13
-33z m-160 -480 c0 -22 -4 -40 -10 -40 -5 0 -10 18 -10 40 0 22 5 40 10 40 6
0 10 -18 10 -40z m-630 -330 c0 -5 -2 -10 -4 -10 -3 0 -8 5 -11 10 -3 6 -1 10
4 10 6 0 11 -4 11 -10z m35 -40 c10 -11 16 -20 13 -20 -3 0 -13 9 -23 20 -10
11 -16 20 -13 20 3 0 13 -9 23 -20z m141 -81 c10 -17 -9 -30 -26 -18 -13 9
-12 10 3 5 19 -6 24 10 5 17 -10 4 -10 6 -1 6 6 1 15 -4 19 -10z m294 -28 c0
-22 -4 -43 -10 -46 -6 -4 -10 12 -10 39 0 25 5 46 10 46 6 0 10 -18 10 -39z
m-186 -66 c-5 -11 -9 -12 -19 -2 -9 8 -10 14 -2 19 16 9 27 0 21 -17z m150
-150 c3 -8 1 -15 -3 -15 -5 0 -11 7 -15 15 -3 8 -1 15 3 15 5 0 11 -7 15 -15z"/>
<path d="M2430 3691 c0 -6 4 -13 10 -16 6 -3 7 1 4 9 -7 18 -14 21 -14 7z"/>
<path d="M2410 3683 c0 -7 10 -24 23 -38 22 -26 23 -26 24 -6 1 12 -2 19 -7
16 -5 -3 -16 5 -24 17 -9 12 -16 17 -16 11z"/>
<path d="M2480 3581 c0 -6 4 -13 10 -16 6 -3 7 1 4 9 -7 18 -14 21 -14 7z"/>
<path d="M2500 3539 c0 -5 -3 -8 -7 -6 -5 3 -9 -8 -10 -24 -1 -15 2 -31 7 -34
5 -3 8 3 8 12 -1 10 2 28 6 41 4 12 5 22 2 22 -3 0 -6 -5 -6 -11z"/>
<path d="M2506 3501 c-4 -5 -2 -12 4 -16 5 -3 10 0 10 7 0 10 3 9 11 -2 9 -12
10 -12 7 -1 -5 18 -24 25 -32 12z"/>
<path d="M2565 3390 c-6 -9 11 -50 21 -50 2 0 0 10 -7 21 -9 17 -8 23 2 30 10
6 10 9 2 9 -6 0 -15 -4 -18 -10z"/>
<path d="M2606 3327 c3 -10 9 -15 12 -12 3 3 0 11 -7 18 -10 9 -11 8 -5 -6z"/>
<path d="M2570 3321 c0 -6 4 -13 10 -16 6 -3 7 1 4 9 -7 18 -14 21 -14 7z"/>
<path d="M3170 2736 c0 -2 8 -10 18 -17 15 -13 16 -12 3 4 -13 16 -21 21 -21
13z"/>
<path d="M1622 1508 c2 -16 10 -23 26 -24 26 -1 28 8 6 30 -22 23 -36 20 -32
-6z"/>
<path d="M1780 1362 c6 -13 14 -21 18 -18 3 4 -2 14 -12 24 -18 16 -18 16 -6
-6z"/>
<path d="M1821 1354 c0 -11 3 -14 6 -6 3 7 2 16 -1 19 -3 4 -6 -2 -5 -13z"/>
<path d="M2733 1335 c0 -8 4 -12 9 -9 5 3 6 10 3 15 -9 13 -12 11 -12 -6z"/>
<path d="M1780 1320 c0 -5 7 -10 15 -10 9 0 12 -6 9 -17 -5 -17 -5 -17 6 0 6
9 8 22 5 27 -8 13 -35 13 -35 0z"/>
<path d="M1825 1261 c-3 -5 -2 -12 3 -15 5 -3 9 1 9 9 0 17 -3 19 -12 6z"/>
<path d="M1947 1125 c3 -8 9 -12 14 -9 12 7 11 11 -5 17 -10 4 -13 1 -9 -8z"/>
<path d="M1926 1097 c3 -10 9 -15 12 -12 3 3 0 11 -7 18 -10 9 -11 8 -5 -6z"/>
<path d="M1981 1094 c0 -11 3 -14 6 -6 3 7 2 16 -1 19 -3 4 -6 -2 -5 -13z"/>
</g>
</svg>
